<?xml version="1.0"?><svg fill="#000000" xmlns="http://www.w3.org/2000/svg"  viewBox="0 0 50 50" width="50px" height="50px">    <path d="M 24.451172 3.0019531 A 1.0001 1.0001 0 0 0 23.828125 3.2597656 C 23.828125 3.2597656 22.284321 4.6396677 20.785156 6.9355469 C 20.487847 6.3849671 19.910612 6 19.25 6 L 14.75 6 C 13.794937 6 13 6.7949372 13 7.75 L 13 12.25 C 13 13.205063 13.794937 14 14.75 14 L 18.095703 14 C 18.038981 14.4906 18 14.988341 18 15.5 C 18 16.436616 18.181929 17.330248 18.498047 18.158203 C 10.853297 20.821039 5 28.311091 5 41 L 5 44 L 6.7246094 41.701172 C 7.0915267 43.013922 7.5755083 44.27612 8.1894531 45.460938 A 1.0002334 1.0002334 0 0 0 9.9648438 44.539062 C 9.1879659 43.039811 8.6299299 41.418355 8.3105469 39.712891 C 9.8014385 37.955117 11.423716 36.318419 13.011719 34.851562 C 12.52678 36.18721 12.176072 37.529379 12.007812 38.876953 L 11.693359 41.390625 L 13.640625 39.767578 C 13.640625 39.767578 19.47619 35 26 35 C 28.944444 35 30.60371 35.23929 32.085938 35.486328 C 33.568165 35.733366 34.916667 36 37 36 C 39.25 36 40.874781 35.084276 41.800781 33.849609 C 42.126211 33.415704 42.348639 32.953457 42.529297 32.488281 C 42.604827 32.81044 42.672178 33.136282 42.730469 33.464844 C 42.731618 33.47141 42.733233 33.477806 42.734375 33.484375 C 42.769991 33.686424 42.79546 33.891357 42.824219 34.095703 C 42.85726 34.335911 42.886968 34.57706 42.910156 34.820312 C 42.924622 34.967232 42.940423 35.113735 42.951172 35.261719 C 42.979805 35.67111 43 36.083206 43 36.5 C 43 39.402018 42.284136 42.127159 41.033203 44.539062 A 1.0002335 1.0002335 0 0 0 42.808594 45.460938 C 44.199661 42.778841 45 39.731982 45 36.5 C 45 35.935745 44.970937 35.378279 44.923828 34.826172 C 44.909978 34.664483 44.884983 34.506237 44.867188 34.345703 C 44.824726 33.961212 44.77744 33.5786 44.712891 33.201172 C 44.679527 33.006711 44.638716 32.815495 44.599609 32.623047 C 44.529593 32.277384 44.453321 31.934476 44.365234 31.595703 C 44.316306 31.408068 44.263336 31.222505 44.208984 31.037109 C 44.106948 30.688122 43.99382 30.344501 43.873047 30.003906 C 43.819166 29.852274 43.766493 29.700668 43.708984 29.550781 C 43.55625 29.151915 43.390631 28.760795 43.212891 28.375 C 43.171239 28.284718 43.132829 28.193051 43.089844 28.103516 C 42.881492 27.668981 42.656905 27.244128 42.417969 26.828125 C 42.389102 26.777886 42.363284 26.72574 42.333984 26.675781 C 41.786262 25.741564 41.163333 24.857947 40.472656 24.03125 C 40.461067 24.017349 40.45108 24.00215 40.439453 23.988281 C 40.37432 23.907391 40.345492 23.872016 40.289062 23.804688 C 40.21557 23.719147 40.143302 23.633072 40.068359 23.548828 C 40.005312 23.478969 39.861328 23.310547 39.861328 23.310547 L 39.851562 23.320312 C 39.829445 23.29624 39.805438 23.273962 39.783203 23.25 C 39.624868 23.079731 39.459194 22.916479 39.294922 22.751953 C 39.127559 22.583808 38.960406 22.415961 38.787109 22.253906 C 38.643312 22.119955 38.495459 21.990944 38.347656 21.861328 C 38.130871 21.670381 37.910646 21.484102 37.685547 21.302734 C 37.574751 21.213911 37.464321 21.125503 37.351562 21.039062 C 37.061843 20.815775 36.765131 20.601589 36.462891 20.394531 C 36.397005 20.349655 36.332086 20.303854 36.265625 20.259766 C 35.079859 19.468551 33.807701 18.798545 32.457031 18.28125 C 32.803459 17.419791 33 16.48276 33 15.5 C 33 11.36961 29.63039 8 25.5 8 C 25.027778 8 25.063923 7.9540177 24.972656 7.7714844 C 24.88139 7.5889511 24.816492 7.1260908 24.869141 6.5996094 C 24.974437 5.5466464 25.427734 4.3710938 25.427734 4.3710938 A 1.0001 1.0001 0 0 0 24.451172 3.0019531 z M 23.011719 7.375 C 23.037749 7.808299 22.968509 8.2358424 23.183594 8.6660156 C 23.561077 9.4209823 24.472222 10 25.5 10 C 28.54961 10 31 12.45039 31 15.5 C 31 18.54961 28.54961 21 25.5 21 C 22.45039 21 20 18.54961 20 15.5 C 20 14.720303 20.085931 13.984149 20.224609 13.28125 A 1.0001 1.0001 0 0 0 20.259766 13.068359 C 20.761228 10.750025 21.90973 8.8562245 23.011719 7.375 z M 15 8 L 19 8 L 19 10 A 1.0001 1.0001 0 0 0 19.039062 10.291016 C 18.823906 10.837601 18.634306 11.407176 18.476562 12 L 15 12 L 15 8 z M 19.351562 19.779297 C 20.709353 21.721943 22.959392 23 25.5 23 C 26.417453 23 27.293631 22.825396 28.107422 22.521484 L 28.585938 23 L 27.292969 24.292969 A 1.0001 1.0001 0 1 0 28.707031 25.707031 L 30 24.414062 L 31.042969 25.457031 L 29.234375 27.263672 A 1.0001 1.0001 0 1 0 30.648438 28.677734 L 32.457031 26.871094 L 33.292969 27.707031 A 1.0001 1.0001 0 1 0 34.707031 26.292969 L 30.824219 22.410156 A 1.0001 1.0001 0 0 0 30.59375 22.179688 L 29.941406 21.527344 C 30.510656 21.106354 31.016681 20.606574 31.447266 20.044922 C 31.451914 20.046604 31.456291 20.049095 31.460938 20.050781 C 33.125773 20.654261 34.672095 21.50279 36.058594 22.552734 C 36.11431 22.595059 36.167463 22.64062 36.222656 22.683594 C 36.496514 22.896171 36.764839 23.115622 37.025391 23.34375 C 37.115502 23.422862 37.202548 23.505022 37.291016 23.585938 C 37.508668 23.784503 37.722312 23.988072 37.929688 24.197266 C 38.036878 24.305627 38.141722 24.416239 38.246094 24.527344 C 38.427548 24.720164 38.604702 24.916282 38.777344 25.117188 C 39.003805 25.382947 39.316685 25.770718 39.724609 26.412109 C 40.386106 27.452198 41 28.818 41 30 C 41 30.833333 40.773219 31.885057 40.199219 32.650391 C 39.625219 33.415724 38.75 34 37 34 C 35.083333 34 33.931835 33.766634 32.414062 33.513672 C 30.89629 33.26071 29.055556 33 26 33 C 20.586081 33 16.771404 35.275475 14.576172 36.789062 C 15.06241 35.049408 15.740077 33.301291 16.847656 31.529297 L 19.310547 27.591797 L 15.445312 30.167969 C 12.925937 31.847553 9.9700011 34.82514 7.2890625 37.994141 A 1.0001 1.0001 0 0 0 7.1777344 37.986328 C 8.0138278 27.718704 13.025816 22.059406 19.408203 19.949219 L 19.351562 19.779297 z M 20.5 40 A 1.5 1.5 0 0 0 19 41.5 A 1.5 1.5 0 0 0 20.5 43 A 1.5 1.5 0 0 0 22 41.5 A 1.5 1.5 0 0 0 20.5 40 z M 31.5 40 A 1.5 1.5 0 0 0 30 41.5 A 1.5 1.5 0 0 0 31.5 43 A 1.5 1.5 0 0 0 33 41.5 A 1.5 1.5 0 0 0 31.5 40 z"/></svg>